<?xml version="1.0" standalone="no"?>
<!DOCTYPE svg PUBLIC "-//W3C//DTD SVG 20010904//EN"
 "http://www.w3.org/TR/2001/REC-SVG-20010904/DTD/svg10.dtd">
<svg version="1.0" xmlns="http://www.w3.org/2000/svg"
 width="1598.000000pt" height="1600.000000pt" viewBox="0 0 1598.000000 1600.000000"
 preserveAspectRatio="xMidYMid meet">
<metadata>
Created by potrace 1.16, written by Peter Selinger 2001-2019
</metadata>
<g transform="translate(0.000000,1600.000000) scale(0.100000,-0.100000)"
fill="#000000" stroke="none">
<path d="M7990 15990 c0 -12 -55 -93 -122 -177 -54 -69 -169 -179 -268 -258
-60 -47 -246 -175 -295 -201 -11 -6 -67 -38 -125 -70 -153 -86 -567 -284 -594
-284 -7 0 -16 -4 -21 -9 -11 -9 -172 -76 -495 -202 -113 -44 -218 -87 -235
-94 -16 -7 -73 -29 -125 -50 -109 -42 -150 -58 -275 -110 -91 -38 -105 -44
-207 -89 -31 -15 -59 -26 -62 -26 -3 0 -83 -38 -178 -84 -615 -299 -898 -552
-1009 -901 -17 -54 -22 -96 -23 -186 l-1 -117 -25 10 c-13 5 -29 13 -35 18
-24 19 -148 44 -238 48 -119 4 -216 -18 -339 -76 -288 -138 -570 -415 -1040
-1023 -31 -41 -83 -108 -116 -149 -32 -41 -98 -129 -147 -195 -101 -136 -435
-564 -476 -610 -15 -16 -67 -77 -116 -135 -106 -124 -327 -350 -433 -442 -194
-169 -439 -315 -625 -372 -87 -27 -278 -51 -332 -43 -44 8 -43 -10 5 -54 74
-69 212 -229 212 -247 0 -5 7 -16 16 -23 9 -7 20 -22 25 -34 5 -11 18 -33 29
-50 58 -91 159 -324 198 -460 44 -151 53 -184 71 -280 39 -207 51 -295 66
-480 9 -104 18 -203 20 -220 3 -16 7 -280 10 -585 6 -565 19 -971 36 -1115 26
-218 40 -319 45 -326 2 -4 9 -34 15 -66 30 -167 127 -412 220 -551 63 -96 190
-225 282 -285 85 -56 164 -97 186 -97 8 0 6 -9 -7 -27 -29 -43 -78 -150 -108
-238 -27 -76 -28 -89 -29 -275 0 -199 3 -225 48 -375 34 -117 62 -190 121
-317 20 -42 36 -79 36 -82 0 -18 253 -459 344 -600 29 -45 88 -137 132 -206
43 -69 101 -160 129 -202 27 -42 66 -103 86 -135 20 -32 49 -78 65 -103 36
-57 38 -59 104 -170 79 -132 95 -159 130 -220 17 -30 48 -86 70 -125 51 -90
197 -386 246 -500 43 -100 111 -286 142 -390 39 -128 81 -299 91 -370 5 -38
14 -101 20 -140 6 -38 14 -105 17 -147 4 -50 10 -78 17 -78 7 0 46 9 87 20
396 105 978 80 1630 -69 47 -10 110 -24 140 -31 30 -6 80 -18 110 -27 30 -9
98 -26 150 -39 52 -13 122 -30 155 -40 99 -27 197 -54 250 -69 56 -17 266 -75
335 -94 25 -6 101 -27 170 -47 69 -19 156 -41 194 -50 38 -8 72 -17 76 -19 6
-4 107 -27 235 -56 22 -5 118 -22 214 -39 157 -27 195 -30 386 -30 179 0 223
3 291 20 100 26 228 90 294 148 51 45 150 179 150 205 0 7 5 18 11 24 5 5 18
36 27 67 l17 57 30 -39 c73 -95 115 -138 190 -196 153 -119 298 -181 522 -223
162 -30 541 -21 738 19 28 5 88 16 135 24 47 7 103 18 125 24 22 5 117 29 210
51 94 23 185 47 204 55 18 8 43 14 54 14 12 0 39 6 62 14 22 8 69 23 105 34
145 43 217 65 255 77 22 8 94 30 160 50 66 20 145 44 175 54 30 10 89 28 130
41 41 12 93 27 115 35 22 7 67 20 100 30 33 9 83 23 110 32 28 8 75 21 105 28
30 7 100 24 155 38 488 121 831 129 1062 22 67 -31 153 -88 161 -107 2 -5 9
-8 16 -8 10 0 15 36 18 143 6 168 27 308 76 507 31 128 97 349 122 405 5 11
27 65 50 120 42 99 172 376 190 405 6 8 21 37 35 63 14 26 62 109 107 185 44
75 86 146 92 157 20 35 45 73 235 359 102 153 193 288 201 301 8 13 76 115
151 227 75 112 156 235 181 273 50 78 168 281 168 289 0 3 13 27 28 53 41 70
116 245 147 342 30 96 55 246 55 330 -1 192 -80 393 -208 529 l-35 37 71 6
c86 8 198 57 273 120 52 43 142 159 176 225 84 164 149 377 187 609 9 55 24
140 32 189 8 49 19 149 24 221 6 73 12 139 15 147 6 15 40 541 55 838 6 107
12 206 14 220 3 14 8 75 11 135 31 552 93 1014 176 1325 51 188 83 275 158
430 57 117 66 133 144 232 37 48 67 90 67 93 0 3 -10 5 -22 5 -83 0 -253 71
-388 162 -188 128 -487 410 -785 742 -88 98 -169 188 -180 201 -11 12 -51 59
-90 105 -38 45 -79 92 -90 105 -45 50 -82 93 -130 150 -27 33 -59 71 -71 85
-12 14 -80 93 -151 175 -71 83 -145 168 -164 189 -18 22 -54 62 -78 90 -186
215 -503 542 -691 714 -121 111 -336 269 -425 313 -16 9 -39 20 -50 26 -96 52
-214 83 -311 83 -78 0 -193 -30 -214 -55 -7 -8 -17 -15 -23 -15 -6 0 -24 -12
-39 -27 l-28 -27 0 36 c0 79 -54 300 -89 364 -74 138 -156 250 -245 336 -101
97 -325 256 -451 320 -87 44 -224 111 -255 125 -19 9 -53 24 -75 34 -87 40
-348 143 -630 249 -27 10 -92 34 -142 54 -51 20 -98 36 -104 36 -6 0 -23 6
-37 14 -15 7 -54 23 -87 36 -99 36 -238 90 -270 105 -16 8 -75 32 -130 55
-126 52 -418 192 -512 245 -177 100 -182 103 -298 180 -107 71 -91 60 -190
137 -112 87 -128 101 -240 213 -115 115 -146 151 -223 258 -50 69 -82 95 -82
67z m30 -909 c0 -5 31 -49 69 -98 315 -407 763 -690 1616 -1021 76 -29 259
-98 390 -147 340 -126 507 -196 704 -295 363 -182 590 -381 701 -616 35 -75
76 -217 85 -296 l6 -57 50 34 c73 50 111 60 224 59 110 -1 151 -12 276 -74
178 -88 385 -257 654 -532 232 -236 302 -315 814 -911 561 -654 820 -919 1073
-1099 127 -91 280 -158 361 -158 31 0 35 -11 10 -31 -36 -30 -115 -146 -161
-237 -198 -387 -284 -919 -343 -2107 -50 -1029 -166 -1526 -407 -1746 -55 -50
-159 -109 -193 -109 -16 0 -29 -24 -44 -78 -5 -16 2 -37 24 -70 200 -312 132
-672 -239 -1262 -57 -91 -95 -148 -411 -620 -280 -419 -396 -608 -516 -845
-225 -445 -353 -891 -353 -1237 0 -58 -4 -88 -11 -88 -6 0 -28 14 -47 32 -124
108 -366 153 -652 122 -287 -32 -459 -77 -1335 -348 -444 -137 -735 -213 -965
-252 -237 -39 -466 -52 -615 -34 -272 32 -456 110 -609 258 -32 31 -70 72 -84
90 -30 40 -59 42 -73 5 -79 -211 -223 -334 -444 -383 -208 -45 -573 -10 -975
94 -30 8 -91 24 -135 35 -83 21 -373 101 -555 153 -200 57 -610 162 -740 189
-149 32 -293 57 -450 80 -186 27 -530 36 -693 20 -103 -11 -293 -48 -339 -66
-14 -5 -17 4 -23 62 -56 587 -247 1068 -732 1843 -60 96 -177 281 -260 410
-254 398 -346 560 -445 780 -184 408 -197 727 -41 1004 19 32 32 60 31 61 -2
1 -25 12 -53 25 -80 38 -150 86 -221 152 -204 191 -315 446 -374 858 -27 188
-38 429 -50 1115 -10 565 -17 704 -45 916 -68 515 -221 887 -473 1150 -48 50
-88 95 -90 100 -2 4 38 8 90 8 143 0 248 27 405 103 329 159 675 503 1203
1197 472 621 593 771 775 960 248 257 445 386 657 428 117 24 249 3 352 -54
l29 -16 -6 46 c-9 61 8 186 35 267 12 36 44 103 71 150 85 144 282 321 507
454 159 94 469 242 720 342 47 19 94 39 105 44 11 5 108 43 215 85 796 310
1111 456 1413 653 200 130 365 283 464 429 52 76 73 98 73 74z"/>
<path d="M8007 13263 c-7 -12 -307 -762 -307 -768 0 -3 34 -5 76 -3 l75 3 33
75 32 75 160 -4 c87 -2 160 -5 162 -6 2 -2 16 -36 31 -77 l27 -73 78 -3 c72
-3 78 -1 71 15 -4 10 -29 77 -56 148 -26 72 -75 204 -109 295 -34 91 -75 202
-92 248 l-30 82 -73 0 c-41 0 -76 -3 -78 -7z m127 -339 c26 -70 45 -129 43
-131 -3 -2 -49 -2 -104 -1 l-100 3 51 127 c28 70 54 128 57 128 4 0 28 -57 53
-126z"/>
<path d="M7070 13180 c-85 -15 -175 -30 -200 -34 l-46 -7 10 -70 10 -71 60 7
c33 3 65 7 70 8 6 1 31 -122 57 -273 25 -151 49 -292 53 -314 l7 -39 54 7
c102 12 98 -21 40 331 -32 196 -47 312 -41 317 5 3 36 10 68 13 52 6 58 9 58
30 0 45 -22 125 -33 124 -7 -1 -82 -14 -167 -29z"/>
<path d="M9092 13188 c-29 -6 -58 -24 -87 -51 -53 -52 -70 -104 -55 -172 14
-63 27 -86 113 -202 91 -122 97 -133 97 -177 0 -27 -6 -40 -26 -52 -58 -39
-122 -11 -162 69 l-24 46 -56 -20 c-32 -11 -63 -22 -70 -24 -9 -3 -5 -20 14
-62 51 -117 134 -167 264 -161 64 2 84 8 119 31 76 50 112 171 78 264 -7 18
-41 73 -77 123 -36 50 -80 112 -98 137 -40 56 -40 92 0 111 22 10 33 10 61 -2
33 -13 77 -62 77 -85 0 -16 5 -14 71 22 32 17 59 37 59 44 0 7 -19 36 -43 65
-67 83 -160 118 -255 96z"/>
<path d="M6288 12979 c-54 -19 -56 -21 -48 -47 53 -182 213 -718 215 -720 2
-2 33 5 70 15 66 17 66 18 61 48 -4 16 -53 185 -109 375 -70 232 -108 346
-118 347 -8 1 -39 -7 -71 -18z"/>
<path d="M10593 12703 c-4 -10 -19 -39 -34 -64 -79 -135 -329 -589 -329 -597
0 -10 102 -72 118 -72 5 0 44 63 86 140 43 77 81 142 85 145 5 2 17 -86 27
-196 10 -110 23 -206 28 -213 6 -8 42 -30 79 -51 l68 -37 -6 48 c-9 81 -45
453 -45 468 0 8 77 46 200 97 110 46 200 86 200 89 0 8 -130 80 -144 80 -7 0
-79 -27 -160 -61 -81 -33 -149 -59 -151 -57 -2 2 23 51 55 108 33 58 59 110
60 116 0 10 -108 74 -124 74 -4 0 -10 -8 -13 -17z"/>
<path d="M5538 12695 c-58 -21 -96 -55 -123 -109 -30 -60 -32 -115 -6 -172 31
-69 93 -104 273 -154 128 -37 163 -52 178 -79 17 -32 12 -57 -19 -90 -23 -25
-37 -31 -70 -31 -23 0 -59 9 -81 20 -22 11 -41 20 -43 20 -11 0 -77 -112 -72
-121 13 -20 110 -61 159 -66 38 -4 66 1 109 17 109 41 166 116 167 218 0 112
-69 190 -204 231 -39 11 -110 32 -158 46 -66 19 -92 32 -104 50 -15 23 -15 27
0 50 32 49 78 55 158 20 14 -6 22 4 43 51 14 32 23 64 21 70 -7 17 -100 44
-150 43 -23 0 -58 -7 -78 -14z"/>
<path d="M4760 12194 c-36 -13 -270 -160 -270 -170 0 -1 39 -59 88 -128 71
-102 303 -438 348 -503 10 -14 18 -11 72 27 l61 42 -66 97 c-37 53 -80 114
-96 136 -15 22 -23 41 -18 43 6 2 85 -35 175 -81 l164 -85 66 46 c36 25 65 46
63 47 -1 1 -78 42 -172 90 -93 49 -171 89 -173 90 -2 2 7 18 18 38 22 37 29
113 15 159 -14 44 -66 108 -108 132 -56 33 -111 40 -167 20z m111 -163 c31
-31 37 -65 15 -93 -15 -21 -86 -78 -95 -78 -9 0 -91 116 -91 127 0 8 43 38 85
61 33 18 55 14 86 -17z"/>
<path d="M8751 12027 c-6 -34 -18 -109 -26 -167 -8 -58 -21 -148 -30 -200 -8
-52 -20 -131 -25 -175 -6 -44 -15 -107 -21 -140 -6 -33 -17 -103 -24 -155 -7
-52 -30 -203 -50 -335 -20 -132 -45 -301 -56 -375 -11 -74 -22 -136 -23 -138
-2 -1 -33 34 -69 80 -81 104 -201 222 -291 288 -38 28 -70 49 -72 48 -1 -2 4
-28 13 -58 27 -103 7 -236 -66 -417 -46 -115 -210 -457 -216 -451 -3 2 -18 85
-35 184 -17 98 -33 186 -35 194 -2 8 -11 58 -19 110 -8 52 -31 187 -51 300
-20 113 -43 245 -51 293 -7 49 -16 96 -18 105 -3 10 -12 60 -21 112 -8 52 -30
185 -50 295 -19 110 -51 292 -70 405 -48 281 -38 253 -88 245 -410 -66 -821
-191 -1202 -365 -512 -235 -947 -536 -1356 -940 -277 -273 -481 -528 -688
-860 -106 -170 -234 -407 -226 -420 3 -4 35 -13 72 -20 38 -6 97 -18 133 -26
79 -17 675 -138 815 -164 55 -11 334 -67 620 -125 286 -58 563 -114 615 -124
417 -80 969 -196 953 -202 -10 -4 -52 -14 -93 -23 -203 -45 -347 -168 -425
-363 -1 -3 -21 -6 -275 -43 -74 -11 -193 -29 -265 -39 -71 -11 -161 -24 -200
-30 -38 -6 -146 -22 -240 -36 -93 -14 -215 -32 -270 -40 -55 -8 -176 -26 -270
-40 -93 -14 -260 -39 -370 -55 -110 -16 -324 -48 -475 -70 -151 -23 -302 -45
-335 -50 -64 -9 -307 -45 -390 -58 l-50 -7 -7 -60 c-3 -33 -9 -116 -12 -185
-4 -69 -9 -161 -12 -205 -3 -44 0 -179 6 -300 33 -679 181 -1264 469 -1860
523 -1081 1472 -1940 2601 -2355 161 -59 425 -139 510 -155 l35 -6 18 103 c44
249 57 320 76 433 12 66 32 185 46 265 14 80 41 237 61 350 36 211 60 350 96
550 11 63 26 151 33 195 7 44 25 145 39 225 14 80 39 226 56 325 35 209 37
215 55 215 19 0 134 -42 317 -116 l157 -64 130 0 130 0 143 61 c179 76 301
120 309 111 3 -4 19 -92 34 -197 15 -104 36 -244 45 -310 10 -66 30 -199 44
-295 15 -96 33 -215 41 -265 8 -49 19 -121 24 -160 6 -38 22 -146 36 -240 54
-349 86 -563 100 -666 8 -58 21 -146 29 -195 8 -49 22 -138 31 -199 9 -60 18
-119 20 -131 l4 -20 78 18 c153 36 385 104 478 138 185 70 232 88 335 133 326
141 641 325 941 548 68 50 126 95 129 98 3 3 45 40 95 81 272 227 690 689 830
919 6 9 29 43 51 76 152 222 328 559 444 850 174 435 275 871 320 1385 20 232
8 809 -19 875 -9 22 -22 24 -276 60 -103 14 -355 52 -850 126 -320 47 -487 72
-585 85 -58 7 -115 16 -126 19 -12 3 -71 11 -130 19 -60 8 -183 26 -274 40
-91 14 -257 39 -370 55 -113 17 -284 42 -380 56 -96 15 -178 29 -181 33 -3 4
-14 27 -24 52 -63 151 -203 269 -367 312 -26 6 -48 14 -48 18 0 5 267 62 490
105 36 7 144 29 240 49 96 20 263 54 370 76 107 22 272 55 365 75 94 20 204
42 245 50 41 8 152 30 245 50 94 20 204 42 245 50 81 16 170 34 585 120 149
31 298 61 333 67 l62 11 -71 136 c-335 637 -803 1182 -1384 1611 -576 425
-1246 714 -1950 839 -60 11 -126 22 -147 24 l-36 5 -11 -61z m-500 -1906 c96
-62 182 -185 249 -358 57 -145 80 -243 80 -343 0 -227 -122 -438 -365 -628
l-30 -24 39 21 c21 12 40 20 42 18 2 -2 0 -23 -4 -47 -7 -43 -8 -43 -76 -66
-67 -23 -71 -23 -125 -8 -61 17 -81 35 -81 72 0 16 4 21 13 16 6 -4 -20 22
-58 58 -39 36 -84 90 -100 119 -28 50 -30 61 -29 154 0 87 4 109 30 170 45
108 88 181 169 290 138 185 175 286 175 477 0 123 1 124 71 79z m1223 -1573
c14 -18 22 -35 18 -39 -4 -3 -45 -11 -92 -18 -273 -40 -502 -141 -661 -289
-124 -117 -188 -224 -233 -396 -91 -343 -76 -832 44 -1410 11 -54 20 -106 20
-115 0 -24 -102 -106 -111 -89 -10 19 -95 457 -123 643 -47 297 -60 455 -60
725 -1 276 10 365 59 497 109 290 440 473 925 512 187 15 185 15 214 -21z
m-2619 -78 c335 -29 604 -101 793 -212 76 -44 213 -181 245 -243 104 -207 135
-604 92 -1190 -16 -215 -86 -769 -99 -782 -3 -4 -42 18 -87 48 -72 49 -85 63
-130 139 -73 125 -202 390 -244 505 -128 344 -147 665 -50 856 72 141 213 219
396 219 l89 0 -32 65 c-18 35 -38 67 -45 70 -8 2 -63 8 -122 11 -201 12 -423
-34 -547 -114 -70 -45 -151 -133 -184 -200 -58 -114 -11 -392 115 -686 31 -73
8 -45 -63 77 -309 531 -444 1050 -351 1353 33 106 19 101 224 84z m2715 -322
c-1 -207 -74 -482 -203 -758 -34 -71 -35 -73 -36 -39 -3 131 -94 241 -271 327
-95 46 -221 91 -382 137 -54 15 -57 18 -47 37 17 32 159 171 210 206 169 114
362 170 597 171 l132 1 0 -82z m-873 -543 c251 -126 308 -357 170 -695 -36
-86 -98 -205 -136 -259 -28 -39 -27 -48 14 -109 40 -59 39 -65 -19 -121 -25
-25 -37 -30 -40 -20 -16 51 -69 387 -92 579 -32 271 -20 660 21 660 7 0 44
-16 82 -35z m-1447 -1090 c13 -11 36 -38 52 -60 39 -54 284 -301 328 -331 19
-13 71 -49 115 -80 124 -86 257 -144 333 -144 95 0 367 151 499 278 172 164
225 218 267 270 58 70 55 69 286 78 141 6 432 -13 505 -32 18 -5 47 -52 272
-443 18 -31 53 -92 78 -136 50 -87 51 -89 108 -183 39 -64 42 -89 10 -60 -55
48 -236 115 -384 142 -139 25 -377 37 -544 25 -282 -18 -472 -64 -740 -179
-315 -135 -320 -135 -605 -23 -271 107 -347 132 -505 164 -406 81 -947 30
-1176 -111 -44 -27 -50 -28 -44 -11 10 31 455 795 470 807 12 9 181 38 285 48
19 2 110 3 201 2 152 -1 169 -3 189 -21z"/>
<path d="M8226 9569 c-2 -7 -14 -45 -26 -83 -24 -79 -66 -163 -109 -221 -122
-163 -156 -284 -112 -387 19 -45 102 -128 128 -128 8 0 49 35 92 78 118 117
173 250 156 376 -16 112 -117 401 -129 365z"/>
<path d="M11540 11896 c-102 -56 -265 -146 -362 -200 l-177 -97 42 -37 c23
-20 49 -42 58 -49 14 -12 27 -8 93 28 77 41 77 41 99 22 12 -11 68 -59 124
-106 l102 -87 -30 -80 -29 -81 35 -31 c20 -17 46 -39 59 -49 l24 -19 30 88
c17 48 79 226 138 396 l108 310 -54 48 c-30 26 -59 48 -64 47 -6 0 -94 -46
-196 -103z m114 -128 c-3 -13 -24 -74 -46 -135 l-40 -113 -74 62 c-41 34 -77
65 -80 69 -4 7 221 138 239 139 5 0 5 -10 1 -22z"/>
<path d="M3916 11499 c-81 -78 -146 -147 -144 -154 4 -17 531 -555 543 -555 6
0 77 66 158 148 l147 147 -48 48 c-26 26 -52 47 -56 47 -5 0 -52 -43 -105 -95
l-97 -95 -73 75 -73 75 102 98 103 97 -49 53 -49 53 -60 -57 c-33 -31 -79 -75
-103 -97 l-42 -41 -50 49 -50 49 100 101 100 101 -48 47 c-26 26 -50 47 -53
47 -3 0 -71 -64 -153 -141z"/>
<path d="M12361 11329 l-51 -41 20 -26 c11 -15 28 -38 39 -52 12 -14 21 -28
21 -32 0 -3 -110 -95 -245 -203 -135 -109 -245 -199 -245 -202 0 -6 84 -112
90 -112 3 -1 117 90 253 200 247 200 249 201 265 178 8 -12 28 -37 45 -55 l29
-34 54 43 c30 23 52 47 50 53 -7 19 -257 324 -266 324 -4 0 -30 -18 -59 -41z"/>
<path d="M3376 10854 c-21 -31 -35 -62 -32 -70 3 -8 78 -116 166 -240 89 -124
160 -228 157 -230 -2 -2 -128 30 -280 71 -151 41 -278 75 -280 75 -10 0 -87
-119 -80 -123 5 -3 112 -33 238 -67 127 -34 302 -82 389 -106 88 -24 163 -44
166 -44 13 0 82 112 77 123 -8 20 -468 662 -476 665 -4 1 -25 -23 -45 -54z"/>
<path d="M12775 10514 c-203 -50 -335 -210 -335 -407 0 -166 102 -322 249
-378 227 -87 481 32 551 259 81 260 -96 517 -363 528 -45 1 -91 1 -102 -2z
m190 -164 c122 -52 183 -197 135 -323 -89 -236 -428 -240 -503 -6 -21 63 -21
101 -2 165 19 63 60 113 124 147 86 47 164 53 246 17z"/>
<path d="M2770 9799 c-16 -35 -26 -67 -22 -71 8 -8 692 -328 701 -328 11 1 62
123 54 131 -6 6 -637 303 -690 326 -8 3 -24 -19 -43 -58z"/>
<path d="M13228 9292 c-196 -59 -359 -110 -362 -113 -3 -3 14 -73 39 -155 25
-82 45 -153 45 -159 1 -32 17 -35 82 -15 l65 20 -29 97 c-29 97 -30 123 -6
123 14 0 580 169 586 174 1 2 -5 33 -14 70 -12 48 -21 66 -33 65 -9 0 -177
-49 -373 -107z"/>
<path d="M2517 9113 c-21 -82 -21 -83 -3 -83 14 0 196 -48 381 -101 71 -20 94
-30 80 -35 -11 -3 -143 -48 -294 -98 l-275 -91 -17 -65 c-10 -36 -17 -66 -16
-66 14 -12 749 -206 755 -199 7 7 42 128 38 132 -1 2 -110 32 -241 68 -131 36
-240 67 -243 69 -2 3 125 47 284 98 319 103 302 93 318 194 l7 40 -78 21 c-43
12 -212 58 -376 102 -164 45 -299 81 -300 81 -1 0 -10 -30 -20 -67z"/>
<path d="M13770 8579 c-25 -5 -193 -33 -374 -63 -180 -30 -330 -57 -333 -59
-9 -9 20 -137 31 -137 12 0 760 122 763 125 7 5 -23 139 -32 140 -5 2 -30 -1
-55 -6z"/>
<path d="M2295 7955 c-2 -5 -5 -38 -7 -72 l-4 -62 50 -5 c28 -3 139 -11 246
-17 248 -14 298 -22 330 -54 21 -21 25 -35 25 -81 0 -50 -3 -58 -33 -85 -39
-35 -43 -35 -380 -13 -134 9 -245 15 -246 13 -2 -2 -7 -36 -11 -75 l-7 -70
289 -18 c366 -22 406 -15 480 82 38 51 53 98 53 172 0 77 -14 120 -56 168 -43
51 -94 79 -160 87 -130 17 -566 40 -569 30z"/>
<path d="M13725 7890 c-77 -4 -238 -11 -357 -15 l-218 -7 0 -76 0 -75 173 7
c143 6 170 5 159 -6 -7 -7 -81 -65 -165 -128 l-152 -115 -1 -60 c-1 -130 -15
-133 211 37 110 82 205 152 212 155 6 2 85 -49 175 -114 89 -65 169 -122 176
-126 9 -6 12 11 12 77 l0 85 -135 98 c-74 54 -134 101 -135 104 0 3 57 9 126
12 69 3 128 7 131 10 3 3 2 38 -2 76 l-7 71 -32 -2 c-17 0 -94 -4 -171 -8z"/>
<path d="M3630 4374 c-173 -102 -325 -192 -338 -200 -26 -17 -23 -26 31 -88
l34 -38 194 114 c107 63 205 120 218 128 l24 13 -25 -44 c-15 -24 -76 -125
-136 -224 l-110 -179 40 -48 c22 -26 44 -48 48 -48 5 0 111 41 237 90 125 50
231 89 234 88 4 -2 -65 -87 -153 -191 l-159 -187 47 -54 46 -54 28 31 c180
209 480 571 480 580 -1 7 -20 33 -43 59 l-42 48 -264 -105 c-146 -57 -266
-103 -268 -101 -2 1 62 110 142 240 80 130 145 242 145 247 0 12 -80 109 -89
109 -3 0 -148 -84 -321 -186z"/>
<path d="M12263 4526 c-138 -34 -214 -146 -189 -281 10 -52 67 -110 128 -131
57 -19 89 -16 276 22 68 14 133 22 145 18 40 -12 57 -35 57 -77 0 -31 -6 -45
-30 -67 -31 -29 -94 -46 -129 -35 -17 5 -20 0 -26 -42 -3 -26 -8 -60 -10 -75
l-4 -28 72 0 c54 0 84 6 122 24 130 60 189 224 123 337 -65 111 -155 131 -388
83 -147 -30 -191 -28 -198 9 -11 57 41 107 111 107 36 0 37 1 37 38 0 20 -3
54 -6 75 -7 41 -10 42 -91 23z"/>
<path d="M11561 3776 l-53 -54 100 -218 c55 -121 132 -291 172 -379 40 -88 75
-162 77 -164 6 -8 103 92 103 106 0 8 -13 43 -30 80 -16 36 -30 71 -30 77 0
15 212 226 228 226 6 0 44 -14 83 -32 l70 -31 55 54 55 55 -378 163 c-208 90
-383 165 -388 167 -6 3 -34 -20 -64 -50z m274 -197 c66 -27 124 -54 129 -59 9
-9 -119 -150 -135 -150 -3 0 -9 8 -12 18 -2 9 -28 68 -55 130 -28 61 -50 112
-49 112 2 0 57 -23 122 -51z"/>
<path d="M4456 3558 c-206 -259 -231 -302 -223 -388 12 -138 133 -249 270
-250 69 0 120 19 166 63 24 24 304 364 372 452 8 11 -90 95 -108 95 -4 -1 -80
-91 -168 -201 -194 -243 -210 -259 -270 -259 -36 0 -50 6 -79 34 -30 27 -36
40 -36 73 0 47 6 57 209 308 79 99 148 185 153 191 5 7 -13 28 -50 57 l-59 46
-177 -221z"/>
<path d="M10964 3294 c-87 -63 -165 -121 -173 -129 -12 -12 -9 -21 24 -69 21
-31 40 -56 43 -56 2 0 26 16 52 35 26 19 52 35 58 35 5 0 94 -115 196 -255
l187 -255 57 42 c31 23 59 43 60 44 2 2 -80 117 -182 257 -102 140 -186 259
-186 263 0 5 25 26 56 47 l55 39 -27 36 c-15 21 -35 47 -44 59 l-17 22 -159
-115z"/>
<path d="M5305 3188 c-51 -18 -82 -46 -105 -94 -32 -65 -24 -146 29 -300 22
-67 41 -138 41 -158 0 -74 -78 -102 -139 -50 -23 19 -33 39 -43 85 l-12 59
-68 0 -68 0 0 -48 c0 -69 25 -134 68 -177 102 -103 244 -118 335 -36 90 81 98
160 33 355 -60 183 -62 190 -37 215 42 42 98 12 127 -67 10 -26 19 -49 20 -51
2 -2 33 2 69 9 l66 12 -7 32 c-34 163 -176 261 -309 214z"/>
<path d="M10470 2989 c-30 -18 -57 -33 -58 -35 -2 -1 33 -69 79 -151 116 -208
113 -202 202 -363 44 -80 86 -151 92 -158 12 -13 28 -7 112 44 l22 14 -53 92
c-29 51 -115 204 -191 341 -75 136 -140 247 -144 247 -3 0 -31 -14 -61 -31z"/>
<path d="M5831 2572 c-74 -169 -145 -330 -157 -359 l-23 -52 56 -25 c30 -14
61 -26 68 -26 7 0 40 62 73 138 161 365 252 575 250 577 -8 5 -126 55 -129 55
-2 0 -64 -138 -138 -308z"/>
<path d="M9970 2743 c-61 -10 -260 -83 -284 -104 -8 -7 87 -250 250 -644 37
-90 37 -90 121 -53 l52 23 -60 145 c-33 79 -58 151 -57 158 2 7 62 -36 142
-103 76 -63 143 -118 148 -121 9 -6 148 47 148 56 0 5 -204 178 -272 231 -21
16 -21 16 13 65 104 152 -24 374 -201 347z m63 -163 c33 -26 42 -65 22 -96
-17 -26 -110 -78 -124 -69 -13 8 -63 137 -56 144 12 11 90 40 111 40 12 1 33
-8 47 -19z"/>
<path d="M9045 2492 c-38 -8 -71 -16 -73 -17 -4 -3 -132 -828 -129 -831 1 -2
35 4 74 13 l72 16 11 71 c6 39 13 78 16 87 3 11 45 24 152 47 81 18 152 32
159 32 6 0 31 -31 55 -70 l43 -70 40 6 c21 4 56 12 77 18 l38 11 -24 35 c-14
19 -114 171 -223 337 -109 166 -202 308 -208 316 -9 12 -19 12 -80 -1z m123
-322 c39 -61 72 -114 72 -119 0 -9 -188 -57 -194 -49 -5 6 37 278 43 278 3 0
39 -50 79 -110z"/>
<path d="M7078 2489 c-111 -26 -227 -120 -273 -222 -36 -78 -50 -182 -36 -257
18 -90 42 -139 101 -203 124 -136 336 -175 503 -92 118 57 116 54 71 119 -22
31 -42 56 -46 56 -4 0 -28 -13 -54 -30 -143 -90 -331 -40 -410 110 -14 26 -19
56 -18 115 0 95 19 140 87 202 111 102 272 91 392 -27 l51 -50 56 42 57 41
-30 39 c-104 130 -290 195 -451 157z"/>
<path d="M8272 2261 l3 -149 -65 -6 c-36 -3 -95 -6 -132 -6 l-68 0 -1 43 c-1
23 -4 89 -8 146 l-6 105 -70 -3 c-38 -1 -71 -4 -73 -6 -4 -4 13 -454 24 -667
6 -113 7 -117 28 -113 11 2 44 4 72 4 l51 1 -5 175 -5 175 132 0 c118 0 131
-2 132 -17 1 -10 4 -85 8 -168 l6 -150 73 -1 72 -2 0 47 c1 91 -21 696 -26
719 -4 20 -10 22 -75 22 l-70 0 3 -149z"/>
</g>
</svg>
